<?xml version="1.0" encoding="UTF-8" standalone="no"?>
<!DOCTYPE svg PUBLIC "-//W3C//DTD SVG 1.1//EN"
 "http://www.w3.org/Graphics/SVG/1.1/DTD/svg11.dtd">
<!-- Generated by graphviz version 2.36.0 (20140111.2315)
 -->
<!-- Title: Main.main Pages: 1 -->
<svg width="330pt" height="66pt"
 viewBox="0.00 0.00 330.00 66.00" xmlns="http://www.w3.org/2000/svg" xmlns:xlink="http://www.w3.org/1999/xlink">
<g id="graph0" class="graph" transform="scale(1 1) rotate(0) translate(4 62)">
<title>Main.main</title>
<polygon fill="white" stroke="none" points="-4,4 -4,-62 326,-62 326,4 -4,4"/>
<!-- Node1 -->
<g id="node1" class="node"><title>Node1</title>
<polygon fill="#bfbfbf" stroke="black" points="0,-19.5 0,-38.5 66,-38.5 66,-19.5 0,-19.5"/>
<text text-anchor="middle" x="33" y="-26.5" font-family="Helvetica,sans-Serif" font-size="10.00">Main.main</text>
</g>
<!-- Node2 -->
<g id="node2" class="node"><title>Node2</title>
<g id="a_node2"><a xlink:href="../../d0/d4b/class_main.html#aff2152f82134c8a36a786c97a2113c3d" target="_top" xlink:title="Main.makePatterns">
<polygon fill="white" stroke="black" points="102.5,-38.5 102.5,-57.5 211.5,-57.5 211.5,-38.5 102.5,-38.5"/>
<text text-anchor="middle" x="157" y="-45.5" font-family="Helvetica,sans-Serif" font-size="10.00">Main.makePatterns</text>
</a>
</g>
</g>
<!-- Node1&#45;&gt;Node2 -->
<g id="edge1" class="edge"><title>Node1&#45;&gt;Node2</title>
<path fill="none" stroke="midnightblue" d="M66.0541,-33.992C74.2457,-35.2678 83.344,-36.6847 92.5172,-38.1133"/>
<polygon fill="midnightblue" stroke="midnightblue" points="92.0418,-41.5814 102.461,-39.662 93.119,-34.6648 92.0418,-41.5814"/>
</g>
<!-- Node3 -->
<g id="node3" class="node"><title>Node3</title>
<g id="a_node3"><a xlink:href="../../d0/d4b/class_main.html#aa3ba4a6e5a498fb5a07dca27e25c92b7" target="_top" xlink:title="Main.testMatches">
<polygon fill="white" stroke="black" points="106.5,-0.5 106.5,-19.5 207.5,-19.5 207.5,-0.5 106.5,-0.5"/>
<text text-anchor="middle" x="157" y="-7.5" font-family="Helvetica,sans-Serif" font-size="10.00">Main.testMatches</text>
</a>
</g>
</g>
<!-- Node1&#45;&gt;Node3 -->
<g id="edge2" class="edge"><title>Node1&#45;&gt;Node3</title>
<path fill="none" stroke="midnightblue" d="M66.0541,-24.008C75.3632,-22.5582 85.8431,-20.9261 96.2734,-19.3017"/>
<polygon fill="midnightblue" stroke="midnightblue" points="96.8762,-22.7501 106.218,-17.7529 95.799,-15.8335 96.8762,-22.7501"/>
</g>
<!-- Node4 -->
<g id="node4" class="node"><title>Node4</title>
<g id="a_node4"><a xlink:href="../../d0/d4b/class_main.html#a19fddadfcaa974b69fb9a72d9279ea10" target="_top" xlink:title="Main.match">
<polygon fill="white" stroke="black" points="248.5,-0.5 248.5,-19.5 321.5,-19.5 321.5,-0.5 248.5,-0.5"/>
<text text-anchor="middle" x="285" y="-7.5" font-family="Helvetica,sans-Serif" font-size="10.00">Main.match</text>
</a>
</g>
</g>
<!-- Node3&#45;&gt;Node4 -->
<g id="edge3" class="edge"><title>Node3&#45;&gt;Node4</title>
<path fill="none" stroke="midnightblue" d="M207.799,-10C217.805,-10 228.277,-10 238.141,-10"/>
<polygon fill="midnightblue" stroke="midnightblue" points="238.157,-13.5001 248.157,-10 238.157,-6.5001 238.157,-13.5001"/>
</g>
</g>
</svg>
